<?xml version="1.0" encoding="UTF-8"?>
<svg width="500" height="400" viewBox="0 0 500 400" fill="none" xmlns="http://www.w3.org/2000/svg">
  <!-- Presentation Board -->
  <rect x="150" y="100" width="200" height="160" rx="5" fill="white" stroke="#5552DA" stroke-width="4"/>
  <rect x="170" y="120" width="160" height="120" rx="2" fill="#F5F5F5"/>
  
  <!-- Chart on Board -->
  <path d="M190 200L220 160L250 180L280 140L310 170" stroke="#2CB9B0" stroke-width="3" stroke-linecap="round"/>
  <circle cx="190" cy="200" r="4" fill="#5552DA"/>
  <circle cx="220" cy="160" r="4" fill="#5552DA"/>
  <circle cx="250" cy="180" r="4" fill="#5552DA"/>
  <circle cx="280" cy="140" r="4" fill="#5552DA"/>
  <circle cx="310" cy="170" r="4" fill="#5552DA"/>
  
  <!-- Board Stand -->
  <path d="M230 260L200 320M270 260L300 320" stroke="#5552DA" stroke-width="4" stroke-linecap="round"/>
  <path d="M190 320H310" stroke="#5552DA" stroke-width="4" stroke-linecap="round"/>
  
  <!-- People Learning -->
  <circle cx="120" cy="290" r="20" fill="#5552DA"/>
  <path d="M110 290H130M100 305H140" stroke="white" stroke-width="2.5" stroke-linecap="round"/>
  
  <circle cx="170" cy="310" r="20" fill="#5552DA"/>
  <path d="M160 310H180M150 325H190" stroke="white" stroke-width="2.5" stroke-linecap="round"/>
  
  <circle cx="380" cy="290" r="20" fill="#5552DA"/>
  <path d="M370 290H390M360 305H400" stroke="white" stroke-width="2.5" stroke-linecap="round"/>
  
  <circle cx="330" cy="310" r="20" fill="#5552DA"/>
  <path d="M320 310H340M310 325H350" stroke="white" stroke-width="2.5" stroke-linecap="round"/>
  
  <!-- Trainer -->
  <circle cx="250" cy="230" r="20" fill="#2CB9B0"/>
  <path d="M240 230H260M235 245H265" stroke="white" stroke-width="2.5" stroke-linecap="round"/>
  
  <!-- Thought Bubbles -->
  <path d="M100 250C100 250 85 240 90 230C95 220 110 225 110 225C110 225 115 210 130 215C145 220 140 235 140 235C140 235 155 240 150 255C145 270 130 265 130 265C130 265 125 275 115 270C105 265 110 255 110 255C110 255 95 255 100 250Z" fill="white" stroke="#2CB9B0" stroke-width="2"/>
  <text x="115" y="245" font-family="Arial, sans-serif" font-size="20" fill="#5552DA" text-anchor="middle">?</text>
  
  <path d="M385 250C385 250 370 240 375 230C380 220 395 225 395 225C395 225 400 210 415 215C430 220 425 235 425 235C425 235 440 240 435 255C430 270 415 265 415 265C415 265 410 275 400 270C390 265 395 255 395 255C395 255 380 255 385 250Z" fill="white" stroke="#2CB9B0" stroke-width="2"/>
  <text x="405" y="245" font-family="Arial, sans-serif" font-size="12" font-weight="bold" fill="#5552DA" text-anchor="middle">AI</text>
  
  <!-- Light Bulb Idea -->
  <circle cx="250" cy="70" r="15" fill="#FFD700" stroke="#5552DA" stroke-width="2"/>
  <path d="M250 85L250 95M240 98L260 98" stroke="#5552DA" stroke-width="2" stroke-linecap="round"/>
  <path d="M240 65L235 60M260 65L265 60M250 55L250 50M240 73L235 78M260 73L265 78" stroke="#5552DA" stroke-width="2" stroke-linecap="round"/>
  
  <!-- Connection Lines -->
  <path d="M250 95L250 110" stroke="#5552DA" stroke-width="2" stroke-dasharray="4 4"/>
  <path d="M120 270L150 100M380 270L350 100" stroke="#2CB9B0" stroke-width="1" stroke-dasharray="3 3"/>
</svg>