<?xml version="1.0" encoding="UTF-8"?>
<svg width="500" height="400" viewBox="0 0 500 400" fill="none" xmlns="http://www.w3.org/2000/svg">
  <!-- Brain outline -->
  <path d="M250 80C188.203 80 138 130.203 138 192C138 253.797 188.203 304 250 304C311.797 304 362 253.797 362 192C362 130.203 311.797 80 250 80Z" stroke="#5552DA" stroke-width="8" stroke-linecap="round"/>
  
  <!-- Circuit patterns -->
  <path d="M190 140L220 170M220 170L250 200M250 200L280 230M280 230L310 260" stroke="#2CB9B0" stroke-width="4" stroke-linecap="round"/>
  <path d="M310 140L280 170M280 170L250 200M250 200L220 230M220 230L190 260" stroke="#5552DA" stroke-width="4" stroke-linecap="round"/>
  <path d="M250 120V150M250 150V180M250 270V300" stroke="#2CB9B0" stroke-width="4" stroke-linecap="round"/>
  <path d="M170 192H200M300 192H330" stroke="#5552DA" stroke-width="4" stroke-linecap="round"/>
  
  <!-- Nodes -->
  <circle cx="190" cy="140" r="8" fill="#5552DA"/>
  <circle cx="220" cy="170" r="8" fill="#2CB9B0"/>
  <circle cx="250" cy="200" r="10" fill="#5552DA"/>
  <circle cx="280" cy="230" r="8" fill="#2CB9B0"/>
  <circle cx="310" cy="260" r="8" fill="#5552DA"/>
  <circle cx="310" cy="140" r="8" fill="#5552DA"/>
  <circle cx="280" cy="170" r="8" fill="#2CB9B0"/>
  <circle cx="220" cy="230" r="8" fill="#2CB9B0"/>
  <circle cx="190" cy="260" r="8" fill="#5552DA"/>
  <circle cx="250" cy="120" r="8" fill="#2CB9B0"/>
  <circle cx="250" cy="300" r="8" fill="#5552DA"/>
  <circle cx="170" cy="192" r="8" fill="#2CB9B0"/>
  <circle cx="330" cy="192" r="8" fill="#5552DA"/>
  
  <!-- Person outline -->
  <path d="M120 320C120 298.909 136.909 282 158 282H342C363.091 282 380 298.909 380 320V350C380 371.091 363.091 388 342 388H158C136.909 388 120 371.091 120 350V320Z" fill="#F5F5F5"/>
  <path d="M250 160C266.569 160 280 146.569 280 130C280 113.431 266.569 100 250 100C233.431 100 220 113.431 220 130C220 146.569 233.431 160 250 160Z" fill="#F5F5F5"/>
  
  <!-- Person -->
  <path d="M250 340C272.091 340 290 322.091 290 300C290 277.909 272.091 260 250 260C227.909 260 210 277.909 210 300C210 322.091 227.909 340 250 340Z" fill="#5552DA"/>
  <path d="M240 300H260M230 320H270" stroke="white" stroke-width="3" stroke-linecap="round"/>
  
  <!-- Data flow -->
  <path d="M160 120C160 120 210 80 250 80M340 120C340 120 290 80 250 80" stroke="#2CB9B0" stroke-width="4" stroke-linecap="round" stroke-dasharray="8 8"/>
  <path d="M160 264C160 264 210 304 250 304M340 264C340 264 290 304 250 304" stroke="#5552DA" stroke-width="4" stroke-linecap="round" stroke-dasharray="8 8"/>
</svg>