<?xml version="1.0" encoding="UTF-8"?>
<svg width="150" height="45" viewBox="0 0 150 45" fill="none" xmlns="http://www.w3.org/2000/svg">
  <path d="M16.5 35.25C26.3845 35.25 34.5 27.1345 34.5 17.25C34.5 7.36547 26.3845 -0.75 16.5 -0.75C6.61547 -0.75 -1.5 7.36547 -1.5 17.25C-1.5 27.1345 6.61547 35.25 16.5 35.25Z" fill="#5A8CA0" fill-opacity="0.1" stroke="#FFFFFF" stroke-width="1.5"/>
  <path d="M10.5 17.25L14.25 21.75L22.5 12.75" stroke="#FFFFFF" stroke-width="1.5" stroke-linecap="round" stroke-linejoin="round"/>
  <path d="M45.152 27V8.2H49.112L55.328 19.536H55.496L61.712 8.2H65.672V27H62.296V13.8H62.128L56.96 23.244H53.864L48.696 13.8H48.528V27H45.152ZM77.971 27.28C76.2643 27.28 74.771 26.9507 73.491 26.292C72.2297 25.6333 71.251 24.708 70.555 23.516C69.8777 22.324 69.539 20.972 69.539 19.46C69.539 17.948 69.8777 16.5867 70.555 15.376C71.251 14.1653 72.2297 13.2307 73.491 12.572C74.771 11.9133 76.2643 11.584 77.971 11.584C79.6777 11.584 81.1617 11.9133 82.423 12.572C83.703 13.2307 84.6817 14.1653 85.359 15.376C86.055 16.5867 86.403 17.948 86.403 19.46C86.403 20.972 86.055 22.324 85.359 23.516C84.6817 24.708 83.703 25.6333 82.423 26.292C81.1617 26.9507 79.6777 27.28 77.971 27.28ZM77.971 24.288C78.955 24.288 79.815 24.0747 80.551 23.648C81.287 23.2027 81.8617 22.5907 82.283 21.812C82.7043 21.0147 82.915 20.0987 82.915 19.06C82.915 18.0213 82.7043 17.1053 82.283 16.308C81.8617 15.5107 81.287 14.8893 80.551 14.444C79.815 13.9987 78.955 13.776 77.971 13.776C76.9683 13.776 76.099 13.9987 75.363 14.444C74.627 14.8893 74.0523 15.5107 73.631 16.308C73.2097 17.1053 72.999 18.0213 72.999 19.06C72.999 20.0987 73.2097 21.0147 73.631 21.812C74.0523 22.5907 74.627 23.2027 75.363 23.648C76.099 24.0747 76.9683 24.288 77.971 24.288ZM96.8545 27.28C95.1479 27.28 93.6452 26.9507 92.3466 26.292C91.0666 25.6333 90.0785 24.708 89.3825 23.516C88.7052 22.324 88.3666 20.972 88.3666 19.46C88.3666 17.948 88.7052 16.5867 89.3825 15.376C90.0785 14.1653 91.0666 13.2307 92.3466 12.572C93.6452 11.9133 95.1479 11.584 96.8545 11.584C98.5612 11.584 100.045 11.9133 101.307 12.572C102.587 13.2307 103.565 14.1653 104.243 15.376C104.939 16.5867 105.287 17.948 105.287 19.46C105.287 20.972 104.939 22.324 104.243 23.516C103.565 24.708 102.587 25.6333 101.307 26.292C100.045 26.9507 98.5612 27.28 96.8545 27.28ZM96.8545 24.288C97.8386 24.288 98.6985 24.0747 99.4346 23.648C100.171 23.2027 100.745 22.5907 101.167 21.812C101.588 21.0147 101.799 20.0987 101.799 19.06C101.799 18.0213 101.588 17.1053 101.167 16.308C100.745 15.5107 100.171 14.8893 99.4346 14.444C98.6985 13.9987 97.8386 13.776 96.8545 13.776C95.8519 13.776 94.9825 13.9987 94.2466 14.444C93.5106 14.8893 92.9359 15.5107 92.5146 16.308C92.0932 17.1053 91.8826 18.0213 91.8826 19.06C91.8826 20.0987 92.0932 21.0147 92.5146 21.812C92.9359 22.5907 93.5106 23.2027 94.2466 23.648C94.9825 24.0747 95.8519 24.288 96.8545 24.288ZM112.658 27V18.044C112.658 16.5587 112.109 15.3387 111.01 14.384C109.93 13.4293 108.383 12.952 106.37 12.952V11.864C107.897 11.864 109.223 12.1493 110.35 12.72C111.495 13.272 112.396 14.0507 113.054 15.056C113.712 14.0693 114.604 13.2907 115.73 12.72C116.856 12.1493 118.183 11.864 119.71 11.864V12.952C117.696 12.952 116.131 13.4293 115.014 14.384C113.915 15.3387 113.366 16.5587 113.366 18.044V27H112.658ZM128.672 27V8.2H132.632L138.848 19.536H139.016L145.232 8.2H149.192V27H145.816V13.8H145.648L140.48 23.244H137.384L132.216 13.8H132.048V27H128.672Z" fill="white"/>
</svg> 